<svg xmlns="http://www.w3.org/2000/svg" viewBox="0 0 512 512" role="img" aria-label="LessonCue">
  <rect width="512" height="512" rx="108" fill="#25302d"/>
  <path d="M108 88h296a20 20 0 0 1 20 20v296a20 20 0 0 1-20 20H108a20 20 0 0 1-20-20V108a20 20 0 0 1 20-20Z" fill="#d89127"/>
  <path d="M164 152v208h121v-42h-69V152h-52Zm190 59c-16-16-36-24-60-24-49 0-86 36-86 86s37 87 86 87c25 0 46-9 62-27l-31-29c-8 9-18 14-29 14-21 0-36-18-36-45 0-26 15-44 36-44 11 0 20 4 28 13l30-31Z" fill="#fff"/>
</svg>
